<svg width="48" height="48" viewBox="0 0 48 48" fill="none" xmlns="http://www.w3.org/2000/svg">
<rect width="48" height="48" fill="white"/>
<rect x="5.5" y="17.96" width="37" height="23" rx="1.5" stroke="#0F3057" stroke-width="3"/>
<rect x="10.5" y="21.96" width="27" height="15" rx="1.5" stroke="#0F3057" stroke-width="3"/>
<rect x="15.5" y="17.96" width="4" height="18" rx="2" transform="rotate(-90 15.5 17.96)" fill="white" stroke="#0F3057" stroke-width="3"/>
<mask id="path-4-inside-1" fill="white">
<path d="M8 40.96C8 40.6838 8.22386 40.46 8.5 40.46L19.5 40.46C19.7761 40.46 20 40.6838 20 40.96C20 41.2361 19.7761 41.46 19.5 41.46H8.5C8.22386 41.46 8 41.2361 8 40.96Z"/>
</mask>
<path d="M8.5 43.46H19.5V37.46H8.5V43.46ZM19.5 38.46H8.5V44.46H19.5V38.46ZM8.5 38.46C9.88071 38.46 11 39.5793 11 40.96H5C5 42.893 6.56701 44.46 8.5 44.46V38.46ZM17 40.96C17 39.5793 18.1193 38.46 19.5 38.46V44.46C21.433 44.46 23 42.893 23 40.96H17ZM19.5 43.46C18.1193 43.46 17 42.3407 17 40.96H23C23 39.027 21.433 37.46 19.5 37.46V43.46ZM8.5 37.46C6.567 37.46 5 39.027 5 40.96H11C11 42.3407 9.88071 43.46 8.5 43.46V37.46Z" fill="#00B2FF" mask="url(#path-4-inside-1)"/>
<mask id="path-6-inside-2" fill="white">
<path d="M24.433 13.6725C24.1939 13.5345 24.1119 13.2287 24.25 12.9895L27.1925 7.89301C27.3306 7.65386 27.6363 7.57192 27.8755 7.70999C28.1146 7.84806 28.1966 8.15386 28.0585 8.39301L25.116 13.4895C24.978 13.7287 24.6722 13.8106 24.433 13.6725Z"/>
</mask>
<path d="M27.1925 7.89301L29.7906 9.39301L27.1925 7.89301ZM26.8481 14.4895L29.7906 9.39301L24.5944 6.39301L21.6519 11.4895L26.8481 14.4895ZM25.4604 6.89301L22.5179 11.9895L27.7141 14.9895L30.6566 9.89301L25.4604 6.89301ZM22.5179 11.9895C23.2083 10.7938 24.7373 10.3841 25.933 11.0745L22.933 16.2706C24.607 17.2371 26.7476 16.6636 27.7141 14.9895L22.5179 11.9895ZM26.3755 10.3081C25.1798 9.61771 24.7701 8.08874 25.4604 6.89301L30.6566 9.89301C31.6231 8.21898 31.0495 6.07842 29.3755 5.11192L26.3755 10.3081ZM29.7906 9.39301C29.1002 10.5887 27.5712 10.9984 26.3755 10.3081L29.3755 5.11192C27.7015 4.14542 25.5609 4.71898 24.5944 6.39301L29.7906 9.39301ZM21.6519 11.4895C20.6854 13.1636 21.259 15.3041 22.933 16.2706L25.933 11.0745C27.1287 11.7648 27.5384 13.2938 26.8481 14.4895L21.6519 11.4895Z" fill="#0F3057" mask="url(#path-6-inside-2)"/>
<mask id="path-8-inside-3" fill="white">
<path d="M20.0127 5.25C20.2519 5.11193 20.5577 5.19387 20.6957 5.43301L25.0585 12.9895C25.1966 13.2287 25.1146 13.5345 24.8755 13.6725C24.6363 13.8106 24.3305 13.7287 24.1925 13.4895L19.8297 5.93301C19.6916 5.69387 19.7736 5.38807 20.0127 5.25Z"/>
</mask>
<path d="M18.0977 6.93301L22.4604 14.4895L27.6566 11.4895L23.2938 3.93301L18.0977 6.93301ZM26.7905 11.9895L22.4278 4.43301L17.2316 7.43301L21.5944 14.9895L26.7905 11.9895ZM22.4278 4.43301C23.1181 5.62875 22.7085 7.15772 21.5127 7.84808L18.5127 2.65192C16.8387 3.61842 16.2651 5.75898 17.2316 7.43301L22.4278 4.43301ZM23.3755 11.0745C24.5712 10.3841 26.1002 10.7938 26.7905 11.9895L21.5944 14.9895C22.5609 16.6635 24.7015 17.2371 26.3755 16.2706L23.3755 11.0745ZM22.4604 14.4895C21.7701 13.2938 22.1798 11.7648 23.3755 11.0745L26.3755 16.2706C28.0495 15.3041 28.6231 13.1636 27.6566 11.4895L22.4604 14.4895ZM23.2938 3.93301C22.3273 2.25899 20.1868 1.68543 18.5127 2.65192L21.5127 7.84808C20.317 8.53843 18.788 8.12874 18.0977 6.93301L23.2938 3.93301Z" fill="#0F3057" mask="url(#path-8-inside-3)"/>
<mask id="path-10-inside-4" fill="white">
<path d="M28 40.96C28 40.6838 28.2239 40.46 28.5 40.46H39.5C39.7761 40.46 40 40.6838 40 40.96C40 41.2361 39.7761 41.46 39.5 41.46H28.5C28.2239 41.46 28 41.2361 28 40.96Z"/>
</mask>
<path d="M28.5 43.46H39.5V37.46H28.5V43.46ZM39.5 38.46H28.5V44.46H39.5V38.46ZM28.5 38.46C29.8807 38.46 31 39.5793 31 40.96H25C25 42.893 26.567 44.46 28.5 44.46V38.46ZM37 40.96C37 39.5793 38.1193 38.46 39.5 38.46V44.46C41.433 44.46 43 42.893 43 40.96H37ZM39.5 43.46C38.1193 43.46 37 42.3407 37 40.96H43C43 39.027 41.433 37.46 39.5 37.46V43.46ZM28.5 37.46C26.567 37.46 25 39.027 25 40.96H31C31 42.3407 29.8807 43.46 28.5 43.46V37.46Z" fill="#00B2FF" mask="url(#path-10-inside-4)"/>
</svg>
