<svg width="48" height="48" viewBox="0 0 48 48" fill="none" xmlns="http://www.w3.org/2000/svg">
<g clip-path="url(#clip0)">
<rect width="48" height="48" fill="white"/>
<circle cx="24" cy="35" r="5.5" stroke="#00B2FF" stroke-width="3"/>
<path d="M12 30.5L12.9098 29.0702C14.5854 26.4373 17.1162 24.4613 20.0769 23.4744L20.2373 23.4209C23.0001 22.5 25.9909 22.5262 28.7371 23.4955V23.4955C31.4991 24.4703 33.8545 26.3428 35.427 28.8139L36.5 30.5" stroke="#0F3057" stroke-width="3"/>
<path d="M7 26L8.82202 23.1705C10.8969 19.9483 13.8539 17.3901 17.3411 15.8004L18 15.5L19.5537 15.1601C23.0265 14.4005 26.639 14.5801 30.0193 15.6807L31 16V16C34.8951 17.4511 38.2161 20.1238 40.4665 23.6186L42 26" stroke="#0F3057" stroke-width="3"/>
<path d="M2 22L5 16.5L5.11532 16.3524C7.195 13.6903 9.91509 11.5983 13.0218 10.2717L16 9L19.1305 8.25896C22.6123 7.43476 26.2515 7.55971 29.6685 8.62078L32.5 9.5L34.2246 10.1679C37.8084 11.556 40.9164 13.9471 43.1767 17.0554L43.5 17.5L46 22" stroke="#0F3057" stroke-width="3"/>
</g>
<defs>
<clipPath id="clip0">
<rect width="48" height="48" fill="white"/>
</clipPath>
</defs>
</svg>
