<svg width="48" height="48" viewBox="0 0 48 48" fill="none" xmlns="http://www.w3.org/2000/svg">
<rect x="4" y="46" width="40" height="2" fill="#0F3057"/>
<rect x="8" y="9" width="16" height="37" fill="#C4C4C4"/>
<path d="M10 25H15V30H10V25Z" fill="#00B2FF"/>
<path d="M17 25H22V30H17V25Z" fill="#00B2FF"/>
<rect x="24" y="2" width="16" height="44" fill="#0F3057"/>
<path d="M33 4H38V9H33V4Z" fill="#00B2FF"/>
<path d="M10 18H15V23H10V18Z" fill="#00B2FF"/>
<path d="M10 11H15V16H10V11Z" fill="#00B2FF"/>
<path d="M17 11H22V16H17V11Z" fill="#00B2FF"/>
<path d="M10 32H15V37H10V32Z" fill="#00B2FF"/>
<path d="M17 32H22V37H17V32Z" fill="#00B2FF"/>
<path d="M10 39H15V44H10V39Z" fill="#00B2FF"/>
<path d="M17 39H22V44H17V39Z" fill="#00B2FF"/>
<path d="M26 39H31V44H26V39Z" fill="#00B2FF"/>
<path d="M33 25H38V30H33V25Z" fill="#00B2FF"/>
<path d="M26 25H31V30H26V25Z" fill="#00B2FF"/>
<path d="M33 32H38V37H33V32Z" fill="#00B2FF"/>
<path d="M26 32H31V37H26V32Z" fill="#00B2FF"/>
<path d="M33 39H38V44H33V39Z" fill="#00B2FF"/>
<path d="M17 18H22V23H17V18Z" fill="#00B2FF"/>
<path d="M26 18H31V23H26V18Z" fill="#00B2FF"/>
<path d="M33 11H38V16H33V11Z" fill="#00B2FF"/>
<path d="M26 11H31V16H26V11Z" fill="#00B2FF"/>
<path d="M26 4H31V9H26V4Z" fill="#00B2FF"/>
<path d="M33 18H38V23H33V18Z" fill="#00B2FF"/>
</svg>
