<svg width="48" height="48" viewBox="0 0 48 48" fill="none" xmlns="http://www.w3.org/2000/svg">
<g clip-path="url(#clip0)">
<rect width="48" height="48" fill="white"/>
<path d="M3.5 10C3.5 8.067 5.067 6.5 7 6.5H40C41.933 6.5 43.5 8.067 43.5 10V19.5H3.5V10Z" stroke="#0F3057" stroke-width="3"/>
<path d="M43.5 22C43.5 23.933 41.933 25.5 40 25.5L7 25.5C5.067 25.5 3.5 23.933 3.5 22L3.5 19.5L43.5 19.5L43.5 22Z" stroke="#0F3057" stroke-width="3"/>
<line x1="15" y1="13.5" x2="33" y2="13.5" stroke="#0F3057" stroke-width="3"/>
<path d="M35.5 28.5L34.5233 30.6975C33.9364 32.0182 34.4111 33.5694 35.6367 34.3354V34.3354C36.4848 34.8655 37 35.7951 37 36.7952V37.4739C37 38.4587 36.6477 39.411 36.0069 40.1587L34 42.5" stroke="#00B2FF" stroke-width="3"/>
<path d="M13 28L12.0233 30.1975C11.4364 31.5182 11.9111 33.0694 13.1367 33.8354V33.8354C13.9848 34.3655 14.5 35.2951 14.5 36.2952V36.9739C14.5 37.9587 14.1477 38.911 13.5069 39.6587L11.5 42" stroke="#00B2FF" stroke-width="3"/>
<path d="M24 28L23.0233 30.1975C22.4364 31.5182 22.9111 33.0694 24.1367 33.8354V33.8354C24.9848 34.3655 25.5 35.2951 25.5 36.2952V36.9739C25.5 37.9587 25.1477 38.911 24.5069 39.6587L22.5 42" stroke="#00B2FF" stroke-width="3"/>
</g>
<defs>
<clipPath id="clip0">
<rect width="48" height="48" fill="white"/>
</clipPath>
</defs>
</svg>
