<svg width="48" height="48" viewBox="0 0 48 48" fill="none" xmlns="http://www.w3.org/2000/svg">
<line x1="3.38702" y1="8.42888" x2="10.387" y2="25.4289" stroke="#0F3057" stroke-width="3"/>
<line x1="44.4145" y1="8.49923" x2="38.4145" y2="25.4992" stroke="#0F3057" stroke-width="3"/>
<path d="M5 28C5 24.134 8.13401 21 12 21H30C33.866 21 37 24.134 37 28H5Z" fill="#00B2FF"/>
<ellipse cx="9.5" cy="23" rx="4.5" ry="3" fill="#00B2FF"/>
<ellipse cx="17.5" cy="21" rx="4.5" ry="3" fill="#00B2FF"/>
<ellipse cx="39.5" cy="25" rx="4.5" ry="3" fill="#00B2FF"/>
<ellipse cx="32.5" cy="23" rx="4.5" ry="3" fill="#00B2FF"/>
<ellipse cx="25.5" cy="21" rx="4.5" ry="3" fill="#00B2FF"/>
<rect x="3.5" y="26.5" width="41" height="20" stroke="#0F3057" stroke-width="3"/>
<rect x="19" y="28" width="11" height="10" fill="#0F3057"/>
<rect x="22" y="30" width="5" height="5" fill="white"/>
<path d="M2 9C2 5.13401 5.13401 2 9 2H39C42.866 2 46 5.13401 46 9H2Z" fill="#0F3057"/>
</svg>
