<svg width="48" height="48" viewBox="0 0 48 48" fill="none" xmlns="http://www.w3.org/2000/svg">
<rect width="48" height="48" fill="white"/>
<path d="M5.5 23C5.5 22.1716 6.17157 21.5 7 21.5H41C41.8284 21.5 42.5 22.1716 42.5 23V34C42.5 34.8284 41.8284 35.5 41 35.5H7C6.17157 35.5 5.5 34.8284 5.5 34V23Z" stroke="#0F3057" stroke-width="3"/>
<mask id="path-2-inside-1" fill="white">
<path d="M5.5 45C4.67157 45 4 44.3284 4 43.5L4 34.5C4 33.6716 4.67157 33 5.5 33C6.32843 33 7 33.6716 7 34.5L7 43.5C7 44.3284 6.32843 45 5.5 45Z"/>
</mask>
<path d="M7 43.5L7 34.5H1L1 43.5H7ZM4 34.5L4 43.5H10V34.5H4ZM4 43.5C4 42.6716 4.67157 42 5.5 42V48C7.98528 48 10 45.9853 10 43.5H4ZM5.5 36C4.67157 36 4 35.3284 4 34.5H10C10 32.0147 7.98528 30 5.5 30L5.5 36ZM7 34.5C7 35.3284 6.32843 36 5.5 36L5.5 30C3.01472 30 1 32.0147 1 34.5H7ZM1 43.5C1 45.9853 3.01472 48 5.5 48V42C6.32843 42 7 42.6716 7 43.5H1Z" fill="#0F3057" mask="url(#path-2-inside-1)"/>
<mask id="path-4-inside-2" fill="white">
<path d="M42.5 45C41.6716 45 41 44.3284 41 43.5V34.5C41 33.6716 41.6716 33 42.5 33C43.3284 33 44 33.6716 44 34.5V43.5C44 44.3284 43.3284 45 42.5 45Z"/>
</mask>
<path d="M44 43.5V34.5H38V43.5H44ZM41 34.5V43.5H47V34.5H41ZM41 43.5C41 42.6716 41.6716 42 42.5 42V48C44.9853 48 47 45.9853 47 43.5H41ZM42.5 36C41.6716 36 41 35.3284 41 34.5H47C47 32.0147 44.9853 30 42.5 30V36ZM44 34.5C44 35.3284 43.3284 36 42.5 36V30C40.0147 30 38 32.0147 38 34.5H44ZM38 43.5C38 45.9853 40.0147 48 42.5 48V42C43.3284 42 44 42.6716 44 43.5H38Z" fill="#0F3057" mask="url(#path-4-inside-2)"/>
<rect x="9.5" y="8.5" width="29" height="13" stroke="#0F3057" stroke-width="3"/>
<rect x="14" y="17" width="7" height="2" stroke="#00B2FF" stroke-width="2"/>
<rect x="27" y="17" width="7" height="2" stroke="#00B2FF" stroke-width="2"/>
</svg>
