<svg width="48" height="48" viewBox="0 0 48 48" fill="none" xmlns="http://www.w3.org/2000/svg">
<rect width="48" height="48" fill="white"/>
<path d="M6.29377 20.501C6.50535 19.9012 7.07227 19.5 7.70835 19.5H40.3123C40.9067 19.5 41.4451 19.851 41.6849 20.3949L44.7712 27.3949C45.2083 28.3863 44.4822 29.5 43.3986 29.5H5.23931C4.2045 29.5 3.48051 28.4769 3.82473 27.501L6.29377 20.501Z" stroke="#0F3057" stroke-width="3"/>
<path d="M11 29.5C11.8284 29.5 12.5 30.1716 12.5 31L12.5 44C12.5 44.8284 11.8284 45.5 11 45.5L9 45.5C8.17157 45.5 7.5 44.8284 7.5 44L7.5 31C7.5 30.1716 8.17157 29.5 9 29.5L11 29.5Z" stroke="#0F3057" stroke-width="3"/>
<path d="M39 29.5C39.8284 29.5 40.5 30.1716 40.5 31L40.5 44C40.5 44.8284 39.8284 45.5 39 45.5L37 45.5C36.1716 45.5 35.5 44.8284 35.5 44L35.5 31C35.5 30.1716 36.1716 29.5 37 29.5L39 29.5Z" stroke="#0F3057" stroke-width="3"/>
<path d="M11 12L11 19" stroke="#0F3057" stroke-width="3" stroke-linecap="round"/>
<path d="M13.1136 11.5L8.88637 11.5L7.84471 6.5L14.1553 6.5L13.1136 11.5Z" fill="white" stroke="#00B2FF" stroke-width="3"/>
<path d="M37 12L37 19" stroke="#0F3057" stroke-width="3" stroke-linecap="round"/>
<path d="M39.1136 11.5L34.8864 11.5L33.8447 6.5L40.1553 6.5L39.1136 11.5Z" fill="white" stroke="#00B2FF" stroke-width="3"/>
</svg>
